<svg xmlns="http://www.w3.org/2000/svg" width="374" height="395" viewBox="0 0 374 395" version="1.1">
	<defs>
		<linearGradient id="logoGrad" x1="0%" y1="0%" x2="100%" y2="100%">
			<stop offset="0%" style="stop-color:#818cf8"/>
			<stop offset="50%" style="stop-color:#6366f1"/>
			<stop offset="100%" style="stop-color:#7c3aed"/>
		</linearGradient>
	</defs>
	<path d="M 181.082 21.250 C 178.198 31.288, 174.117 45.125, 172.013 52 C 169.909 58.875, 166.320 71.475, 164.038 80 C 161.756 88.525, 158.803 98.650, 157.475 102.500 C 156.147 106.350, 153 116.925, 150.481 126 C 147.962 135.075, 141.366 157.680, 135.823 176.233 L 125.744 209.967 134.701 224.733 C 164.045 273.112, 185.454 307.318, 186.637 307.712 C 187.468 307.989, 197 295.041, 197 293.635 C 197 293.421, 204.945 280.478, 214.656 264.873 C 224.367 249.268, 235.923 230.503, 240.336 223.173 L 248.360 209.846 245.290 199.673 C 243.602 194.078, 239.670 181.175, 236.553 171 C 233.436 160.825, 228.669 144.625, 225.961 135 C 223.252 125.375, 219.675 113, 218.012 107.500 C 216.349 102, 212.768 89.625, 210.053 80 C 207.339 70.375, 203.467 57.100, 201.450 50.500 C 199.432 43.900, 196.694 34.450, 195.365 29.500 C 194.036 24.550, 192.310 18.475, 191.530 16 C 190.749 13.525, 189.618 9.588, 189.017 7.250 C 188.415 4.912, 187.563 3, 187.124 3 C 186.685 3, 183.966 11.212, 181.082 21.250 M 148.500 26.011 C 130.310 30.199, 115.021 35.726, 101 43.182 C 64.972 62.341, 39.043 88.668, 20.758 124.656 C -0.325 166.151, -4.665 214.848, 8.620 260.847 C 13.523 277.823, 25.170 302.090, 34.040 313.808 C 36.218 316.686, 38 319.996, 38 321.165 C 38 322.333, 34.578 334.361, 30.395 347.894 C 20.798 378.945, 17.713 390.046, 18.470 390.803 C 18.799 391.133, 22.541 390.227, 26.784 388.791 C 43.546 383.120, 76.840 371.119, 82.773 368.609 L 89.047 365.955 98.273 370.906 C 129.701 387.771, 167.646 395.958, 200.919 393.053 C 240.112 389.631, 275.945 375.011, 306.500 349.976 C 335.120 326.525, 359.056 288.144, 367.289 252.500 C 371.494 234.295, 372.388 226.367, 372.416 207 C 372.445 187.465, 371.874 182.913, 366.849 162.628 C 358.911 130.575, 340.503 97.653, 319.072 77.176 C 294.357 53.562, 270.200 39.100, 240.500 30.138 C 229.109 26.700, 214.116 23.551, 213.252 24.415 C 212.638 25.029, 215.828 40.103, 216.959 41.934 C 217.324 42.525, 222.096 44.163, 227.562 45.574 C 275.824 58.030, 314.905 89.920, 337.763 135.500 C 342.515 144.976, 349.705 165.769, 351.434 175.033 C 355.347 196.012, 355.347 219.367, 351.432 240.075 C 345.476 271.574, 326.690 304.984, 301.553 328.778 C 288.596 341.043, 276.914 349.241, 261.372 356.974 C 244.089 365.573, 230.525 370.119, 213.481 373.023 C 202.190 374.946, 198.221 375.159, 183 374.658 C 151.638 373.625, 132.155 368.084, 102.678 351.816 L 91.856 345.843 80.678 349.858 C 74.530 352.066, 64.401 355.740, 58.169 358.022 C 51.937 360.304, 46.573 361.906, 46.249 361.582 C 45.552 360.885, 49.979 344.576, 54.671 330.554 C 58.945 317.784, 58.903 315.894, 54.208 309.591 C 44.023 295.918, 33.217 276.738, 29.650 266 C 23.142 246.414, 21.425 238.138, 19.992 219.451 C 18.914 205.394, 19.976 185.981, 22.470 174.163 C 24.078 166.539, 30.562 147.134, 34.219 139 C 46.219 112.306, 69.813 84.848, 95 68.266 C 112.753 56.577, 126.420 50.838, 152.679 44.043 C 156.095 43.158, 157.052 42.372, 157.921 39.731 C 159.030 36.363, 162 25.236, 162 24.451 C 162 23.552, 156.333 24.207, 148.500 26.011 M 138.500 81.570 C 120.563 88.798, 104.665 99.312, 90.992 112.989 C 75.462 128.525, 65.128 145.198, 58.512 165.393 C 53.566 180.493, 52 190.742, 52 208.021 C 52 235.639, 58.991 258.716, 74.674 282.867 C 79.025 289.568, 79.987 291.781, 79.505 293.979 C 79.173 295.489, 79.426 298.806, 80.067 301.350 C 82.188 309.774, 91.629 315.722, 101.398 314.791 C 104.955 314.451, 106.186 314.978, 111.833 319.252 C 130.507 333.387, 160.994 342.999, 187.151 343 C 203.775 343, 225.772 338.254, 241.170 331.343 C 246.428 328.984, 247.554 328.799, 250.400 329.828 C 262.363 334.154, 276 325.670, 276 313.902 C 276 311.255, 277.426 309.222, 284.280 302.102 C 298.522 287.308, 308.280 271.469, 314.460 253.118 C 320.485 235.227, 321.494 228.646, 321.453 207.500 C 321.422 191.038, 321.104 187.231, 319.078 179 C 311.282 147.329, 294.612 120.489, 271.613 102.576 C 263.362 96.149, 253.364 89.733, 246.947 86.747 C 235.408 81.376, 229.651 79.015, 229.199 79.467 C 228.292 80.375, 233.172 99.030, 234.723 100.580 C 235.547 101.404, 238.534 103.243, 241.361 104.666 C 264.561 116.348, 284.899 138.928, 295.367 164.628 C 302.253 181.532, 303.514 188.483, 303.418 209 C 303.345 224.459, 303.038 227.608, 300.782 236 C 295.634 255.155, 283.933 275.871, 270.148 290.235 C 265.629 294.945, 265.575 294.968, 260.436 294.364 C 250.843 293.236, 243.609 297.955, 240.162 307.588 C 238.576 312.021, 237.842 312.768, 232.589 315.286 C 212.547 324.894, 181.628 327.278, 157.646 321.064 C 148.398 318.667, 134.032 312.058, 124.086 305.625 C 118.631 302.096, 117 300.502, 117 298.702 C 117 297.415, 116.336 294.126, 115.524 291.391 C 113.169 283.462, 105.895 278, 97.691 278 C 93.472 278, 93.131 277.771, 89.726 272.642 C 76.462 252.665, 70 231.300, 70 207.422 C 70 184.060, 76.846 162.002, 90.405 141.679 C 98.802 129.093, 116.410 113.686, 132.226 105.087 C 136.476 102.777, 140.250 100.405, 140.613 99.817 C 141.946 97.661, 145.892 80.493, 145.207 79.833 C 144.818 79.459, 141.800 80.240, 138.500 81.570 M 180.148 89.250 C 179.628 91.037, 176.489 101.502, 173.172 112.505 C 169.856 123.508, 166.257 135.658, 165.175 139.505 C 164.092 143.352, 160.626 155.275, 157.471 166 C 151.032 187.894, 148.042 198.889, 148.017 200.774 C 148.004 201.767, 151.796 201.987, 165.250 201.774 L 182.500 201.500 182.758 143.750 C 182.921 107.295, 182.662 86, 182.055 86 C 181.527 86, 180.668 87.463, 180.148 89.250 M 191.242 143.750 L 191.500 201.500 208.750 201.774 L 226 202.047 226 199.727 C 226 198.451, 223.763 189.974, 221.028 180.889 C 218.294 171.804, 213.176 154.501, 209.654 142.436 C 199.616 108.044, 192.631 86, 191.772 86 C 191.338 86, 191.100 111.987, 191.242 143.750" stroke="none" fill="url(#logoGrad)" fill-rule="evenodd"/>
</svg>
